<svg width="24" height="24" viewBox="0 0 24 24" fill="none" xmlns="http://www.w3.org/2000/svg">
<rect width="24" height="24" rx="3" fill="#A7A7A7"/>
<path d="M17.3135 17.5359L17.264 17.5291L17.3135 17.5359L18.6848 7.47857H19.2857C19.4505 7.47857 19.6086 7.4131 19.7251 7.29656C19.8417 7.18002 19.9071 7.02196 19.9071 6.85714C19.9071 6.69233 19.8417 6.53427 19.7251 6.41773C19.6086 6.30119 19.4505 6.23571 19.2857 6.23571H14.7638C14.7509 5.63435 14.5064 5.06035 14.0802 4.63411C13.6421 4.19608 13.048 3.95 12.4286 3.95C11.8091 3.95 11.215 4.19608 10.777 4.63411C10.3507 5.06035 10.1063 5.63435 10.0934 6.23571H5.57143C5.40662 6.23571 5.24855 6.30119 5.13201 6.41773C5.01547 6.53427 4.95 6.69233 4.95 6.85714C4.95 7.02196 5.01547 7.18002 5.13201 7.29656C5.24855 7.4131 5.40662 7.47857 5.57143 7.47857H6.17235L7.5436 17.5359L7.59314 17.5291L7.5436 17.5359C7.63864 18.2324 7.9828 18.8708 8.51238 19.3331C9.04195 19.7953 9.72107 20.05 10.424 20.05H14.4331C15.1361 20.05 15.8152 19.7953 16.3448 19.3331C16.8743 18.8708 17.2185 18.2324 17.3135 17.5359ZM14.4332 18.8071H14.4331H10.424C10.0217 18.8071 9.63296 18.6613 9.32984 18.3967C9.02672 18.1321 8.8297 17.7667 8.77525 17.3681L7.42642 7.47857H17.4307L16.083 17.3681C16.083 17.3681 16.083 17.3681 16.083 17.3681C16.0285 17.7669 15.8314 18.1325 15.528 18.3971C15.2247 18.6617 14.8357 18.8074 14.4332 18.8071ZM13.2013 5.51295C13.3945 5.70608 13.5079 5.96406 13.5203 6.23571H11.3369C11.3493 5.96406 11.4627 5.70608 11.6558 5.51295C11.8608 5.308 12.1387 5.19286 12.4286 5.19286C12.7184 5.19286 12.9964 5.308 13.2013 5.51295ZM11.3357 10.2857C11.3357 10.1209 11.2702 9.96284 11.1537 9.8463C11.0372 9.72976 10.8791 9.66429 10.7143 9.66429C10.5495 9.66429 10.3914 9.72976 10.2749 9.8463C10.1583 9.96284 10.0929 10.1209 10.0929 10.2857V16C10.0929 16.1648 10.1583 16.3229 10.2749 16.4394C10.3914 16.556 10.5495 16.6214 10.7143 16.6214C10.8791 16.6214 11.0372 16.556 11.1537 16.4394C11.2702 16.3229 11.3357 16.1648 11.3357 16V10.2857ZM14.5823 9.8463C14.4657 9.72976 14.3077 9.66429 14.1429 9.66429C13.978 9.66429 13.82 9.72976 13.7034 9.8463C13.5869 9.96284 13.5214 10.1209 13.5214 10.2857V16C13.5214 16.1648 13.5869 16.3229 13.7034 16.4394C13.82 16.556 13.978 16.6214 14.1429 16.6214C14.3077 16.6214 14.4657 16.556 14.5823 16.4394C14.6988 16.3229 14.7643 16.1648 14.7643 16V10.2857C14.7643 10.1209 14.6988 9.96284 14.5823 9.8463Z" fill="white" stroke="white" stroke-width="0.1"/>
</svg>
