<svg width="24" height="24" viewBox="0 0 24 24" fill="none" xmlns="http://www.w3.org/2000/svg">
<rect width="24" height="24" rx="3" fill="#A7A7A7"/>
<path d="M5.66667 10.6667H17.6667V17.336C17.6667 17.7027 17.37 18 17.0047 18H6.32867C6.24159 17.9999 6.15538 17.9827 6.07497 17.9492C5.99456 17.9158 5.92153 17.8669 5.86005 17.8052C5.79857 17.7435 5.74984 17.6704 5.71666 17.5898C5.68348 17.5093 5.66649 17.4231 5.66667 17.336V10.6667ZM9.66667 12V13.3333H13.6667V12H9.66667ZM5 6.66667C5 6.29867 5.30333 6 5.66133 6H17.672C18.0373 6 18.3333 6.296 18.3333 6.66667V9.33333H5V6.66667Z" fill="white"/>
</svg>
